<?xml version="1.0" encoding="UTF-8"?>
<svg width="179px" height="31px" viewBox="0 0 179 31" version="1.1" xmlns="http://www.w3.org/2000/svg" xmlns:xlink="http://www.w3.org/1999/xlink">
    <!-- Generator: Sketch 50.2 (55047) - http://www.bohemiancoding.com/sketch -->
    <title>Commonbond Logo</title>
    <desc>Created with Sketch.</desc>
    <defs></defs>
    <g id="Symbols" stroke="none" stroke-width="1" fill="none" fill-rule="evenodd">
        <g id="Navigation/XL-Desktop" transform="translate(-72.000000, -18.000000)" fill-rule="nonzero">
            <g id="Group-25">
                <g id="Commonbond-Logo" transform="translate(72.000000, 18.000000)">
                    <path d="M51.3417219,21.7994465 C50.4173279,21.3068963 49.6409092,20.5895229 49.0887417,19.7178017 C48.0090662,17.9326581 48.0090662,15.7205988 49.0887417,13.9354552 C49.6359948,13.0609675 50.4082993,12.3396144 51.3298013,11.8422457 C52.2868464,11.3325743 53.3612248,11.06603 54.4529801,11.0674113 C55.5442694,11.0578957 56.6197536,11.320732 57.5761589,11.830681 C58.4896359,12.3096735 59.2549848,13.0162487 59.7933775,13.8776317 C60.8580763,15.666696 60.8580763,17.870914 59.7933775,19.6599783 C59.255453,20.5306369 58.4907569,21.2485749 57.5761589,21.741623 C56.6185434,22.249892 55.5445419,22.5163427 54.4529801,22.5164574 C53.3699007,22.5381865 52.2990236,22.2913955 51.3417219,21.7994465 Z M56.0264901,19.3592962 C56.4682921,19.0987348 56.8336274,18.732358 57.0874172,18.2953445 C57.6109109,17.3533056 57.6109109,16.2189984 57.0874172,15.2769596 C56.8317763,14.8404748 56.4616325,14.4773901 56.0145695,14.2245725 C55.5324985,13.9718643 54.9883623,13.8518885 54.4410596,13.8776317 C53.9064143,13.8818015 53.3815367,14.0170603 52.9152318,14.2708313 C52.4615298,14.5243028 52.0867603,14.8918806 51.8304636,15.334783 C51.5671015,15.7943186 51.4315335,16.3124323 51.4370861,16.8381931 C51.442939,17.3603396 51.582196,17.8729252 51.8423841,18.3300385 C52.0979202,18.7764999 52.4726169,19.1480009 52.9271523,19.405555 C53.3918316,19.6631912 53.9177692,19.7987231 54.4529801,19.7987546 C55.0092207,19.7958482 55.5537967,19.6437561 56.0264901,19.3592962 Z" id="Shape" fill="#0058BF"></path>
                    <path d="M77.3761589,11.5646931 C77.9908593,11.9216033 78.4809006,12.4493926 78.7827815,13.0796679 C79.1257917,13.8042681 79.2929891,14.595519 79.2715232,15.3926065 L79.2715232,22.2389048 L75.9337748,22.2389048 L75.9337748,15.8089355 C75.9691365,15.2929581 75.7983875,14.7835782 75.4569536,14.3864782 C75.1330523,14.0383657 74.6640835,13.8512753 74.181457,13.8776317 C73.6742139,13.859938 73.1865933,14.0687684 72.8582781,14.4443017 C72.4941131,14.8587031 72.306536,15.3922287 72.3337748,15.9361471 L72.3337748,22.2504695 L68.9721854,22.2504695 L68.9721854,15.7742414 C69.0039012,15.258711 68.8335786,14.7506032 68.4953642,14.3517841 C68.1924074,14.0231135 67.7577633,13.8375788 67.3033113,13.8429376 C66.7853748,13.8230876 66.2859276,14.0313541 65.9443709,14.4096076 C65.5844965,14.8257316 65.4012453,15.3590747 65.4317881,15.901453 L65.4317881,22.2273401 L62.0463576,22.2273401 L61.986755,11.5646931 L65.2410596,11.1830582 L65.2410596,12.4667392 C65.6142749,12.0298663 66.0823885,11.6784014 66.6119205,11.4374815 C67.1611649,11.1927134 67.7598851,11.0702217 68.3642384,11.078976 C68.9998302,11.0650927 69.6295154,11.1999643 70.2,11.4721755 C70.7259317,11.7506511 71.1755376,12.1471829 71.5112583,12.6286449 C71.9181598,12.1216972 72.4514916,11.7236884 73.0609272,11.4721755 C73.7088616,11.1892716 74.4127037,11.0471794 75.1231788,11.0558466 C75.9076855,11.0257079 76.6860384,11.2015026 77.3761589,11.5646931 Z" id="Shape" fill="#0058BF"></path>
                    <path d="M96.6516556,11.5646931 C97.2708949,11.9109783 97.7627919,12.436722 98.0582781,13.0681032 C98.3996826,13.7932125 98.5668031,14.5840993 98.5470199,15.3810418 L98.5470199,22.2273401 L95.2092715,22.2273401 L95.2092715,15.7164179 C95.237667,15.1993615 95.0630257,14.691077 94.7205298,14.2939607 C94.4130955,13.9713271 93.981366,13.7870366 93.5284768,13.7851142 C93.0177895,13.7672837 92.526477,13.9758165 92.1933775,14.3517841 C91.8335032,14.7679081 91.6502519,15.3012513 91.6807947,15.8436295 L91.6807947,22.157952 L88.2119205,22.157952 L88.2119205,15.7279826 C88.2457911,15.2141085 88.0799156,14.7065791 87.7470199,14.3055254 C87.447225,13.9712939 87.0116408,13.7811321 86.5549669,13.7851142 C86.0411467,13.7687839 85.5468318,13.9767344 85.207947,14.3517841 C84.845112,14.7714579 84.657925,15.3080013 84.6834437,15.8551942 L84.6834437,22.1695167 L81.3218543,22.1695167 L81.3218543,11.4837402 L84.5761589,11.0905407 L84.5761589,12.3857863 C84.9458131,11.9424519 85.4145993,11.5865273 85.9470199,11.3449639 C86.5023064,11.105639 87.1036492,10.9834419 87.7112583,10.9864584 C88.3447213,10.9694229 88.9722723,11.108695 89.5350993,11.3912227 C90.0652732,11.6638803 90.5162037,12.0615802 90.8463576,12.547692 C91.2592488,12.0466272 91.7909155,11.6498611 92.3960265,11.3912227 C93.0507753,11.1175081 93.7572838,10.9796365 94.4701987,10.9864584 C95.2381146,10.9824825 95.9925113,11.182449 96.6516556,11.5646931 Z" id="Shape" fill="#0058BF"></path>
                    <path d="M103.029139,21.6837995 C102.113216,21.210017 101.340708,20.5123926 100.788079,19.6599783 C100.230806,18.7934396 99.9412254,17.7900954 99.9536424,16.768805 C99.9428895,15.7420369 100.227749,14.7327366 100.776159,13.8545023 C101.315724,12.9781039 102.084824,12.2559028 103.005298,11.7612929 C104.953075,10.7351031 107.303879,10.7351031 109.251656,11.7612929 C110.171842,12.2500847 110.944385,12.9636873 111.492715,13.8313729 C112.033315,14.7165239 112.313658,15.7284292 112.303311,16.7572403 C112.323487,17.7784005 112.046686,18.7844144 111.504636,19.6599783 C110.961223,20.530425 110.192796,21.2480084 109.275497,21.741623 C108.31903,22.2527131 107.244268,22.5193525 106.152318,22.5164574 C105.054669,22.5047985 103.978781,22.2179605 103.029139,21.6837995 Z M107.666225,19.2436493 C108.111397,18.9834186 108.480683,18.6171948 108.739073,18.1796975 C109.005501,17.717153 109.141207,17.1945193 109.13245,16.6647227 C109.129589,16.1385234 108.990205,15.6214934 108.727152,15.1613126 C108.475294,14.7220611 108.104261,14.3581043 107.654305,14.1089256 C107.179507,13.8456531 106.639414,13.7136604 106.092715,13.7272907 C105.553536,13.725842 105.023366,13.8614055 104.554967,14.1204903 C104.104548,14.3742323 103.733707,14.7419975 103.482119,15.184442 C103.220248,15.6403647 103.084711,16.1543739 103.088742,16.6762874 C103.084277,17.2019214 103.219776,17.7197701 103.482119,18.1796975 C103.74132,18.6234963 104.115176,18.9941637 104.566887,19.255214 C105.034027,19.5160413 105.565777,19.6480099 106.104636,19.6368489 C106.653344,19.6544893 107.195619,19.5179474 107.666225,19.2436493 Z" id="Shape" fill="#0058BF"></path>
                    <path d="M122.781457,11.4721755 C123.421136,11.8339733 123.929285,12.3794835 124.235762,13.0334091 C124.595324,13.7780209 124.770838,14.5937551 124.748344,15.4157359 L124.748344,22.0885638 L121.362914,22.0885638 L121.362914,15.8320648 C121.398013,15.2655567 121.200917,14.7085471 120.81457,14.282396 C120.433782,13.9043305 119.904508,13.7023078 119.360265,13.7272907 C118.776813,13.7054736 118.212013,13.9288644 117.810596,14.3402194 C117.404874,14.7855642 117.191439,15.3653422 117.21457,15.9592765 L117.21457,22.1001285 L113.84106,22.1001285 L113.84106,11.4027874 L117.095364,11.0095878 L117.095364,12.3048334 C117.510286,11.8621181 118.018453,11.5111036 118.58543,11.2755758 C119.193281,11.0303824 119.846397,10.908381 120.504636,10.9170703 C121.302768,10.8862196 122.093183,11.0789284 122.781457,11.4721755 Z" id="Shape" fill="#0058BF"></path>
                    <path d="M136.144371,11.6456459 C137.009042,12.135605 137.721481,12.8427584 138.206623,13.6925966 C138.720043,14.5696917 138.983375,15.5636352 138.969536,16.5722052 C138.996133,18.6814185 137.810507,20.6296825 135.89404,21.6259761 C134.911104,22.1328401 133.812409,22.39136 132.699338,22.3776811 C131.599654,22.3991488 130.512468,22.1484012 129.540397,21.6491055 C128.616573,21.1682206 127.848875,20.4474641 127.323179,19.5674607 C126.781479,18.6448177 126.501767,17.5992745 126.512583,16.5375111 L126.512583,5.45853514 L129.933775,4.75308886 L129.933775,12.1429277 C130.372692,11.7490102 130.881582,11.4355501 131.435762,11.2177523 C132.025998,11.0008798 132.6523,10.8911187 133.283444,10.8939409 C134.29053,10.8819533 135.281165,11.1422416 136.144371,11.6456459 Z M134.32053,19.1973905 C134.770949,18.9436485 135.141789,18.5758833 135.393377,18.1334388 C135.657178,17.6657038 135.792637,17.1400421 135.786755,16.6068993 C135.795681,16.0807517 135.659894,15.5618038 135.393377,15.1034892 C135.141519,14.6642376 134.770486,14.3002808 134.32053,14.0511021 C133.364574,13.534271 132.200989,13.534271 131.245033,14.0511021 C130.78594,14.2977284 130.409447,14.6669959 130.160265,15.1150539 C129.628072,16.0590526 129.628072,17.2010047 130.160265,18.1450035 C130.416209,18.5782568 130.786528,18.9375218 131.233113,19.1858258 C131.693277,19.4425961 132.216218,19.5744223 132.74702,19.5674607 C133.296057,19.5815408 133.83909,19.4538261 134.32053,19.1973905 Z" id="Shape" fill="#0058BF"></path>
                    <path d="M143.308609,21.591282 C142.380893,21.1031498 141.60341,20.3847933 141.055629,19.5096372 C139.960514,17.7285926 139.960514,15.5083354 141.055629,13.7272907 C141.589747,12.8288126 142.358645,12.0828674 143.284768,11.5646931 C144.237507,11.0550273 145.308047,10.7884178 146.396026,10.7898587 C147.487701,10.7771911 148.564,11.0402263 149.519205,11.5531284 C150.444948,12.0397216 151.218943,12.7586593 151.760265,13.6347732 C152.824964,15.4238374 152.824964,17.6280555 151.760265,19.4171197 C151.226913,20.2953222 150.45603,21.0151982 149.531126,21.4987645 C148.578387,22.0084302 147.507847,22.2750397 146.419868,22.2735989 C145.339748,22.3075535 144.268653,22.0726563 143.308609,21.591282 Z M147.933775,19.1511318 C148.381668,18.8942527 148.751746,18.5272433 149.006623,18.08718 C149.543065,17.1360214 149.543065,15.9852596 149.006623,15.034101 C148.743302,14.5994158 148.369914,14.2371741 147.921854,13.9817139 C147.46169,13.7249437 146.938749,13.5931175 146.407947,13.6000791 C145.873092,13.6027285 145.347829,13.7380867 144.882119,13.9932786 C144.425799,14.2434412 144.050208,14.6118244 143.797351,15.0572304 C143.535008,15.5171579 143.399509,16.0350066 143.403974,16.5606405 C143.397888,17.0842865 143.537934,17.5997766 143.809272,18.0524859 C144.064808,18.4989472 144.439504,18.8704483 144.89404,19.1280024 C145.358077,19.3871526 145.884439,19.522794 146.419868,19.5212019 C146.949501,19.531115 147.472219,19.4033381 147.933775,19.1511318 Z" id="Shape" fill="#0058BF"></path>
                    <path d="M162.953642,11.379658 C163.586617,11.7494107 164.092636,12.2926345 164.407947,12.9408916 C164.761037,13.6875838 164.936234,14.5018427 164.92053,15.3232183 L164.92053,21.9729169 L161.54702,21.9729169 L161.54702,15.7048532 C161.579068,15.1407524 161.387101,14.5861801 161.010596,14.1551843 C160.624437,13.7777981 160.091941,13.5761979 159.544371,13.6000791 C158.961468,13.5812639 158.39789,13.8041715 157.994702,14.2130078 C157.593289,14.660111 157.384193,15.2396956 157.410596,15.8320648 L157.410596,21.9729169 L154.060927,21.9729169 L154.060927,11.2755758 L157.350993,10.9401997 L157.350993,12.2238806 C157.763619,11.7786625 158.272395,11.4272273 158.84106,11.1946229 C159.444725,10.9494052 160.09396,10.8273708 160.748344,10.8361174 C161.520127,10.8243165 162.281253,11.0119115 162.953642,11.379658 Z" id="Shape" fill="#0058BF"></path>
                    <path d="M172.060927,10.8014233 C173.303032,10.7833632 174.5054,11.2259622 175.422517,12.0388455 L175.422517,4.64900662 L178.807947,5.05377088 L178.807947,16.4102995 C178.828586,17.4753791 178.552667,18.5261345 178.009272,19.4518138 C177.496916,20.336755 176.736363,21.0625753 175.815894,21.5450232 C173.823917,22.5469554 171.454229,22.5469554 169.462252,21.5450232 C167.55224,20.5553529 166.370554,18.614929 166.398675,16.5143817 C166.386276,15.5074461 166.645148,14.5148258 167.149669,13.6347732 C167.629532,12.7789497 168.337677,12.0639831 169.2,11.5646931 C170.066754,11.0680782 171.054304,10.8046087 172.060927,10.8014233 Z M172.621192,19.4865079 C173.697962,19.5143407 174.702423,18.962582 175.231788,18.0524859 C175.498216,17.5899414 175.633923,17.0673077 175.625166,16.5375111 C175.630172,16.0118139 175.494639,15.4938335 175.231788,15.034101 C174.974677,14.5878841 174.595046,14.2195853 174.135099,13.9701493 C173.662683,13.711588 173.127767,13.5798551 172.58543,13.5885144 C172.053598,13.5856324 171.530735,13.7214328 171.071523,13.9817139 C170.621567,14.2308926 170.250534,14.5948495 169.998675,15.034101 C169.733755,15.4930348 169.59808,16.011558 169.605298,16.5375111 C169.595113,17.0726099 169.735218,17.6003105 170.010596,18.0640506 C170.263454,18.5094566 170.639044,18.8778398 171.095364,19.1280024 C171.561589,19.3781944 172.088635,19.502028 172.621192,19.4865079 Z" id="Shape" fill="#0058BF"></path>
                    <path d="M40.9350993,21.7994465 C40.0167628,21.3175581 39.2473327,20.607022 38.7059603,19.7409311 C38.1667386,18.863674 37.8863338,17.8595469 37.8953642,16.8381931 C37.8751888,15.8170329 38.1519891,14.811019 38.6940397,13.9354552 C39.2267825,13.0637803 39.9929968,12.3484132 40.9112583,11.8653751 C41.8611272,11.3618384 42.9282269,11.1030269 44.010596,11.1136701 C45.2234824,11.1382738 46.4127695,11.4435712 47.4794702,12.0041514 L46.4900662,14.4905604 C45.7961517,14.104167 45.0131717,13.8933858 44.213245,13.8776317 C43.6499524,13.8643455 43.093583,14.0002855 42.6039735,14.2708313 C42.1468161,14.5251107 41.7713098,14.8974144 41.5192053,15.3463477 C40.9954066,16.2718936 40.9954066,17.392928 41.5192053,18.3184739 C41.7810557,18.7651346 42.1646066,19.1332352 42.6278146,19.3824256 C43.1245215,19.6461802 43.6827969,19.7815828 44.2490066,19.7756252 C45.0879645,19.7425994 45.9061078,19.5124202 46.6331126,19.104873 L47.6821192,21.5565879 C46.548642,22.1462149 45.2949709,22.4858166 44.010596,22.5511515 C42.9342659,22.5746538 41.8714711,22.3148882 40.9350993,21.7994465 Z" id="Shape" fill="#0058BF"></path>
                    <path d="M6.68741722,6.30275773 C1.66887417,6.30275773 0,7.92181477 0,12.7905506 L0,18.3531679 L0,30.4151428 L13.5178808,30.4151428 C18.5245033,30.4151428 20.1933775,28.7960858 20.1933775,23.92735 L20.1933775,18.3531679 L20.1933775,6.30275773 L6.68741722,6.30275773 Z" id="Shape" fill="#F8AE9E"></path>
                    <path d="M15.4966887,0 C10.4900662,0 8.82119205,1.61905703 8.82119205,6.48779282 L8.82119205,12.0504102 L8.82119205,24.1008204 L22.3390728,24.1008204 C27.3456954,24.1008204 29.0145695,22.4817634 29.0145695,17.6130276 L29.0145695,12.0504102 L29.0145695,0 L15.4966887,0 Z" id="Shape" fill="#0058BF"></path>
                </g>
            </g>
        </g>
    </g>
</svg>